# xmcd
#
# Track frame offsets:
#	150
#	15195
#	34073
#	48758
#	70238
#	89633
#	102616
#	116634
#	135204
#	149904
#
# Disc length: 2191 seconds
# Revision: 0
# Processed by: cddbd v1.5.2PL0 Copyright (c) Steve Scherf et al.
# Submitted via: dBpowerAMP V12.0
#
DISCID=88088d0a
DTITLE=Blues Unlimited - Blues Unlimited
DYEAR=2014
DGENRE=Blues
TTITLE0=Fourty Years
TTITLE1=Richard Cory
TTITLE2=Summer Sun
TTITLE3=Poor Boy Blues
TTITLE4=Lang John Billy Frets
TTITLE5=The Fly
TTITLE6=Long Line Skinner
TTITLE7=Never Like This Before (live "Alter Schlachthof", Soest 2012)
TTITLE8=Fourty Years (live "Alter Schlachthof", Soest 2012)
TTITLE9=Summer Sun - Latin Mix  (live "Alter Schlachthof", Soest 2012)
EXTD=
EXTT0=
EXTT1=
EXTT2=
EXTT3=
EXTT4=
EXTT5=
EXTT6=
EXTT7=
EXTT8=
EXTT9=
PLAYORDER=
